<svg xmlns="http://www.w3.org/2000/svg" width="381" height="48" fill="none"><g fill="#FFBF00" clip-path="url(#a)"><path d="M69.63 36.5V10.73h8.349c3.164 0 5.227.13 6.188.387 1.476.387 2.712 1.23 3.709 2.531.996 1.29 1.494 2.96 1.494 5.01 0 1.582-.288 2.912-.862 3.99-.574 1.079-1.306 1.928-2.197 2.55-.879.609-1.775 1.013-2.69 1.212-1.242.246-3.04.37-5.396.37h-3.392v9.72h-5.204Zm5.203-21.41v7.312h2.847c2.051 0 3.422-.134 4.113-.404.692-.27 1.23-.691 1.618-1.266.398-.574.597-1.242.597-2.003 0-.938-.275-1.711-.826-2.32-.55-.61-1.248-.991-2.092-1.143-.62-.118-1.869-.176-3.744-.176h-2.514Zm17.63 11.812c0-1.64.405-3.228 1.213-4.763.809-1.535 1.951-2.707 3.428-3.516 1.488-.809 3.147-1.213 4.975-1.213 2.824 0 5.138.92 6.943 2.76 1.805 1.828 2.707 4.142 2.707 6.943 0 2.825-.914 5.168-2.742 7.032-1.817 1.851-4.108 2.777-6.873 2.777-1.711 0-3.346-.387-4.904-1.16-1.547-.774-2.725-1.905-3.534-3.393-.808-1.5-1.213-3.322-1.213-5.467Zm5.063.264c0 1.852.44 3.27 1.318 4.254.88.984 1.963 1.477 3.252 1.477 1.289 0 2.367-.493 3.235-1.477.878-.985 1.318-2.414 1.318-4.29 0-1.827-.44-3.233-1.318-4.218-.868-.984-1.946-1.476-3.235-1.476s-2.373.492-3.252 1.476c-.879.985-1.318 2.402-1.318 4.254Zm34.365-3.814-4.869.878c-.164-.972-.539-1.705-1.125-2.197-.574-.492-1.324-.738-2.25-.738-1.23 0-2.215.428-2.953 1.283-.727.844-1.09 2.262-1.09 4.254 0 2.215.369 3.78 1.107 4.693.75.915 1.752 1.372 3.006 1.372.938 0 1.705-.264 2.303-.791.598-.54 1.02-1.46 1.266-2.76l4.851.826c-.504 2.226-1.47 3.908-2.9 5.045-1.43 1.136-3.346 1.705-5.748 1.705-2.731 0-4.91-.861-6.539-2.584-1.617-1.723-2.426-4.108-2.426-7.154 0-3.082.814-5.479 2.443-7.19 1.629-1.723 3.832-2.584 6.61-2.584 2.273 0 4.078.492 5.414 1.477 1.347.972 2.314 2.46 2.9 4.465Zm3.586 13.148V10.73h4.94v13.676l5.783-6.574h6.082l-6.381 6.82 6.838 11.848h-5.326l-4.694-8.385-2.302 2.408V36.5h-4.94Zm31.025-5.941 4.922.826c-.632 1.805-1.634 3.181-3.006 4.13-1.359.938-3.064 1.407-5.115 1.407-3.246 0-5.648-1.06-7.207-3.182-1.23-1.699-1.845-3.844-1.845-6.433 0-3.094.808-5.514 2.425-7.26 1.617-1.758 3.662-2.637 6.135-2.637 2.777 0 4.969.92 6.574 2.76 1.606 1.828 2.373 4.635 2.303 8.42h-12.375c.035 1.465.434 2.607 1.195 3.428.762.808 1.711 1.212 2.848 1.212.773 0 1.424-.21 1.951-.632.527-.422.926-1.102 1.195-2.04Zm.282-4.993c-.035-1.43-.405-2.513-1.108-3.252-.703-.75-1.558-1.125-2.566-1.125-1.078 0-1.969.393-2.672 1.178-.703.785-1.049 1.852-1.037 3.2h7.383Zm17.508-7.734v3.938h-3.375v7.523c0 1.523.029 2.414.087 2.672.071.246.217.451.44.615.234.164.515.246.844.246.457 0 1.119-.158 1.986-.474l.422 3.832c-1.149.492-2.449.738-3.903.738-.89 0-1.693-.147-2.408-.44-.715-.304-1.242-.691-1.582-1.16-.328-.48-.556-1.125-.685-1.933-.106-.575-.159-1.735-.159-3.48v-8.14h-2.267v-3.937h2.267v-3.709l4.958-2.883v6.592h3.375ZM219.676 36.5h-5.66l-2.25-5.854h-10.301l-2.127 5.854h-5.519l10.037-25.77h5.502l10.318 25.77Zm-9.58-10.195-3.551-9.563-3.48 9.563h7.031Zm10.582 4.869 4.957-.756c.211.96.639 1.693 1.283 2.197.645.492 1.547.738 2.708.738 1.277 0 2.238-.234 2.882-.703.434-.328.651-.767.651-1.318 0-.375-.117-.686-.352-.932-.246-.234-.797-.45-1.652-.65-3.985-.879-6.51-1.682-7.576-2.408-1.477-1.008-2.215-2.408-2.215-4.201 0-1.618.638-2.977 1.916-4.078 1.277-1.102 3.258-1.653 5.941-1.653 2.555 0 4.453.416 5.696 1.248 1.242.832 2.097 2.063 2.566 3.692l-4.658.86c-.199-.726-.58-1.282-1.143-1.669-.551-.387-1.342-.58-2.373-.58-1.301 0-2.232.182-2.795.545-.375.258-.562.592-.562 1.002 0 .351.164.65.492.896.445.328 1.98.791 4.605 1.389 2.637.598 4.477 1.33 5.52 2.197 1.031.88 1.547 2.104 1.547 3.674 0 1.711-.715 3.182-2.145 4.412-1.429 1.23-3.545 1.846-6.345 1.846-2.543 0-4.559-.516-6.047-1.547-1.477-1.031-2.444-2.432-2.901-4.201Zm30.34-13.342v3.938h-3.375v7.523c0 1.523.029 2.414.088 2.672.07.246.217.451.439.615.235.164.516.246.844.246.457 0 1.119-.158 1.987-.474l.421 3.832c-1.148.492-2.449.738-3.902.738-.891 0-1.693-.147-2.408-.44-.715-.304-1.242-.691-1.582-1.16-.328-.48-.557-1.125-.686-1.933-.105-.575-.158-1.735-.158-3.48v-8.14h-2.268v-3.937h2.268v-3.709l4.957-2.883v6.592h3.375Zm8.156 18.668h-4.939V17.832h4.588v2.654c.785-1.254 1.488-2.08 2.109-2.478.633-.399 1.348-.598 2.145-.598 1.125 0 2.209.31 3.252.932l-1.53 4.306c-.832-.539-1.605-.808-2.32-.808-.691 0-1.277.193-1.758.58-.48.375-.861 1.06-1.142 2.057-.27.996-.405 3.082-.405 6.257V36.5Zm8.157-9.598c0-1.64.404-3.228 1.212-4.763.809-1.535 1.952-2.707 3.428-3.516 1.488-.809 3.147-1.213 4.975-1.213 2.824 0 5.138.92 6.943 2.76 1.805 1.828 2.707 4.142 2.707 6.943 0 2.825-.914 5.168-2.742 7.032-1.816 1.851-4.107 2.777-6.873 2.777a10.89 10.89 0 0 1-4.904-1.16c-1.547-.774-2.725-1.905-3.534-3.393-.808-1.5-1.212-3.322-1.212-5.467Zm5.062.264c0 1.852.44 3.27 1.318 4.254.879.984 1.963 1.477 3.252 1.477 1.289 0 2.368-.493 3.235-1.477.879-.985 1.318-2.414 1.318-4.29 0-1.827-.439-3.233-1.318-4.218-.867-.984-1.946-1.476-3.235-1.476s-2.373.492-3.252 1.476c-.878.985-1.318 2.402-1.318 4.254Zm18.088 9.334V10.73h4.939V36.5h-4.939Zm8.877-9.598c0-1.64.404-3.228 1.213-4.763.808-1.535 1.951-2.707 3.428-3.516 1.488-.809 3.146-1.213 4.974-1.213 2.824 0 5.139.92 6.944 2.76 1.804 1.828 2.707 4.142 2.707 6.943 0 2.825-.915 5.168-2.743 7.032-1.816 1.851-4.107 2.777-6.873 2.777-1.711 0-3.345-.387-4.904-1.16-1.547-.774-2.725-1.905-3.533-3.393-.809-1.5-1.213-3.322-1.213-5.467Zm5.062.264c0 1.852.44 3.27 1.319 4.254.879.984 1.963 1.477 3.252 1.477 1.289 0 2.367-.493 3.234-1.477.879-.985 1.318-2.414 1.318-4.29 0-1.827-.439-3.233-1.318-4.218-.867-.984-1.945-1.476-3.234-1.476s-2.373.492-3.252 1.476c-.879.985-1.319 2.402-1.319 4.254Zm17.631 10.564 5.643.686c.094.656.31 1.107.65 1.354.469.351 1.207.527 2.215.527 1.289 0 2.256-.194 2.9-.58.434-.258.762-.674.985-1.248.152-.41.228-1.166.228-2.268v-2.724c-1.476 2.015-3.339 3.023-5.589 3.023-2.508 0-4.495-1.06-5.959-3.182-1.149-1.675-1.723-3.761-1.723-6.257 0-3.13.75-5.52 2.25-7.172 1.512-1.653 3.387-2.479 5.625-2.479 2.308 0 4.213 1.014 5.713 3.041v-2.619h4.623v16.752c0 2.203-.182 3.85-.545 4.94-.363 1.09-.873 1.945-1.529 2.566-.657.62-1.536 1.107-2.637 1.459-1.09.351-2.473.527-4.149.527-3.164 0-5.408-.545-6.732-1.635-1.324-1.078-1.986-2.449-1.986-4.113 0-.164.006-.363.017-.598Zm4.412-10.95c0 1.98.381 3.433 1.143 4.359.773.914 1.723 1.37 2.848 1.37 1.207 0 2.226-.468 3.058-1.405.832-.95 1.248-2.35 1.248-4.202 0-1.933-.398-3.369-1.195-4.306-.797-.938-1.805-1.407-3.023-1.407-1.184 0-2.163.463-2.936 1.39-.762.913-1.143 2.314-1.143 4.2Zm28.864 3.779 4.922.826c-.633 1.805-1.635 3.181-3.006 4.13-1.36.938-3.065 1.407-5.116 1.407-3.246 0-5.648-1.06-7.207-3.182-1.23-1.699-1.845-3.844-1.845-6.433 0-3.094.808-5.514 2.426-7.26 1.617-1.758 3.662-2.637 6.134-2.637 2.778 0 4.969.92 6.574 2.76 1.606 1.828 2.374 4.635 2.303 8.42h-12.375c.035 1.465.434 2.607 1.196 3.428.761.808 1.71 1.212 2.847 1.212.774 0 1.424-.21 1.951-.632.528-.422.926-1.102 1.196-2.04Zm.281-4.993c-.035-1.43-.404-2.513-1.107-3.252-.704-.75-1.559-1.125-2.567-1.125-1.078 0-1.969.393-2.672 1.178-.703.785-1.049 1.852-1.037 3.2h7.383ZM369.284 36.5h-4.94V17.832h4.588v2.654c.785-1.254 1.488-2.08 2.11-2.478.632-.399 1.347-.598 2.144-.598 1.125 0 2.209.31 3.252.932l-1.529 4.306c-.832-.539-1.606-.808-2.321-.808-.691 0-1.277.193-1.757.58-.481.375-.862 1.06-1.143 2.057-.27.996-.404 3.082-.404 6.257V36.5ZM29.45 21.05c.7 0 1.292-.242 1.776-.726a2.406 2.406 0 0 0 .724-1.774 2.434 2.434 0 0 0-.724-1.776c-.481-.485-1.073-.727-1.776-.724-.703.003-1.294.245-1.774.726s-.722 1.073-.726 1.774c-.004.701.238 1.293.726 1.776a2.43 2.43 0 0 0 1.774.724ZM48.1 44c-1.4 0-3.283-.583-5.65-1.75-2.367-1.167-4.9-2.75-7.6-4.75a15.224 15.224 0 0 1-3.9.5c-3.9 0-7.2-1.35-9.9-4.05-2.7-2.7-4.05-6-4.05-9.9 0-.667.05-1.333.15-2 .1-.667.233-1.317.4-1.95-1.967-2.7-3.541-5.225-4.724-7.574-1.183-2.35-1.775-4.225-1.776-5.626 0-.9.25-1.608.75-2.124s1.183-.775 2.05-.776c.867-.001 1.992.299 3.376.9s3.292 1.618 5.724 3.05c-.7.367-1.35.75-1.95 1.15-.6.4-1.183.833-1.75 1.3a19.542 19.542 0 0 0-1.85-.95c-.6-.267-1.233-.55-1.9-.85.6 1.267 1.242 2.5 1.926 3.7a66.622 66.622 0 0 0 2.174 3.55 13.55 13.55 0 0 1 4.85-4.25c1.967-1.033 4.133-1.55 6.5-1.55 3.9 0 7.209 1.359 9.926 4.076 2.717 2.717 4.075 6.025 4.074 9.924 0 2.367-.525 4.533-1.576 6.5A13.795 13.795 0 0 1 39.1 35.4c1.167.767 2.359 1.5 3.576 2.2 1.217.7 2.459 1.333 3.724 1.9a48.543 48.543 0 0 0-.824-1.85 24.34 24.34 0 0 0-.976-1.85c.5-.567.95-1.167 1.35-1.8.4-.633.767-1.283 1.1-1.95 1.533 2.6 2.575 4.542 3.126 5.826.55 1.284.825 2.359.824 3.224 0 .967-.267 1.692-.8 2.176-.533.484-1.233.725-2.1.724ZM34.45 30.05c.567 0 1.042-.192 1.426-.576.384-.384.575-.859.574-1.424-.001-.565-.193-1.04-.574-1.424-.381-.384-.857-.576-1.426-.576-.57 0-1.044.192-1.424.576-.38.384-.572.859-.576 1.424a1.91 1.91 0 0 0 .576 1.426 1.93 1.93 0 0 0 1.424.574Zm2.5-7c.433 0 .792-.142 1.076-.426.284-.284.425-.642.424-1.074-.001-.432-.143-.79-.424-1.074-.281-.284-.64-.426-1.076-.426-.436 0-.794.142-1.074.426-.28.284-.422.642-.426 1.074a1.451 1.451 0 0 0 1.5 1.5Zm-6.55 10.9a90.918 90.918 0 0 1-4.9-4.55 78.336 78.336 0 0 1-4.5-4.9 9.958 9.958 0 0 0 .85 3.576 9.858 9.858 0 0 0 2.05 2.974c.867.865 1.85 1.549 2.95 2.05 1.1.501 2.283.785 3.55.85Zm5.15-1.05c1.6-.833 2.9-2.041 3.9-3.624 1-1.583 1.5-3.341 1.5-5.276 0-2.767-.975-5.117-2.926-7.05-1.95-1.933-4.309-2.9-7.074-2.9-1.933 0-3.683.5-5.25 1.5-1.567 1-2.767 2.3-3.6 3.9a67.168 67.168 0 0 0 6.25 7.2 67.168 67.168 0 0 0 7.2 6.25Z"/></g><defs><clipPath id="a"><path fill="#fff" d="M0 0h381v48H0z"/></clipPath></defs></svg>